<?xml version="1.0" encoding="utf-8"?>
<!-- Generator: Adobe Illustrator 27.2.0, SVG Export Plug-In . SVG Version: 6.00 Build 0)  -->
<svg version="1.1" id="레이어_1" xmlns="http://www.w3.org/2000/svg" xmlns:xlink="http://www.w3.org/1999/xlink" x="0px"
	 y="0px" viewBox="0 0 512 512" style="enable-background:new 0 0 512 512;" xml:space="preserve">
<style type="text/css">
	.st0{fill:none;stroke:#6B7280;stroke-width:10;stroke-miterlimit:10;}
</style>
<path class="st0" d="M113.3,54c-7.6-6-18.5-5.2-25.4,1.6L55.7,87.8c-6.8,6.8-7.6,17.7-1.7,25.4l64.4,83.7c3.6,4.7,9.3,7.6,15.3,7.6
	h43.5l87.7,87.7c-11.8,23.3-8,52.6,11.5,72.1l90.1,90.1c10.1,10.1,26.4,10.1,36.5,0l51.5-51.5c10.1-10.1,10.1-26.4,0-36.5
	l-90.1-90.1c-19.5-19.5-48.8-23.3-72.1-11.5l-87.7-87.7v-43.5c0-6-2.8-11.7-7.6-15.3L113.3,54z"/>
<path class="st0" d="M462,165.9c0-8.4-0.9-16.7-2.6-24.5c-1.9-9-13-11.3-19.5-4.8l-51.4,51.4c-2.4,2.4-5.7,3.8-9.1,3.8h-46.2
	c-7.1,0-12.9-5.8-12.9-12.9v-46.3c0-3.4,1.4-6.7,3.8-9.1l51.4-51.4c6.5-6.5,4.2-17.5-4.8-19.5c-8-1.7-16.2-2.6-24.6-2.6
	c-64,0-115.9,51.9-115.9,115.9v0.6l68.6,68.6c29-7.3,61,0.4,83.7,23.1l12.6,12.6C434.6,252.4,462,212.3,462,165.9z"/>
<path class="st0" d="M66,368.7c-10.2,10.2-16,24.1-16,38.6c0,30.2,24.5,54.6,54.6,54.6c14.5,0,28.4-5.8,38.6-16l94.8-94.8
	c-6.3-16.8-7.2-35.1-2.9-52.4l-49.6-49.6L66,368.7z M133.7,397.6c0,10.7-8.6,19.3-19.3,19.3s-19.3-8.6-19.3-19.3
	c0-10.7,8.6-19.3,19.3-19.3S133.7,386.9,133.7,397.6z"/>
</svg>
