<?xml version="1.0" encoding="utf-8"?>
<!-- Generator: Adobe Illustrator 27.2.0, SVG Export Plug-In . SVG Version: 6.00 Build 0)  -->
<svg version="1.1" id="레이어_1" xmlns="http://www.w3.org/2000/svg" xmlns:xlink="http://www.w3.org/1999/xlink" x="0px"
	 y="0px" viewBox="0 0 512 512" style="enable-background:new 0 0 512 512;" xml:space="preserve">
<style type="text/css">
	.st0{fill:#6B7280;}
</style>
<path class="st0" d="M154.5,112.3c-5.4-4.3-13.2-3.7-18.1,1.1l-22.9,22.9c-4.8,4.8-5.4,12.6-1.2,18.1l45.8,59.5
	c2.6,3.3,6.6,5.4,10.9,5.4H200l62.4,62.4c-8.4,16.6-5.7,37.4,8.2,51.3l64.1,64.1c7.2,7.2,18.8,7.2,26,0l36.6-36.6
	c7.2-7.2,7.2-18.8,0-26l-64.1-64.1c-13.9-13.9-34.7-16.6-51.3-8.2l-62.4-62.4v-30.9c0-4.3-2-8.3-5.4-10.9L154.5,112.3z"/>
<path class="st0" d="M402.5,191.9c0-6-0.6-11.9-1.8-17.4c-1.4-6.4-9.2-8-13.9-3.4l-36.6,36.6c-1.7,1.7-4.1,2.7-6.5,2.7h-32.9
	c-5,0-9.2-4.1-9.2-9.2v-32.9c0-2.4,1-4.8,2.7-6.5l36.6-36.6c4.6-4.6,3-12.4-3.4-13.9c-5.7-1.2-11.5-1.8-17.5-1.8
	c-45.5,0-82.4,36.9-82.4,82.4v0.4l48.8,48.8c20.6-5.2,43.4,0.3,59.5,16.4l9,9C383,253.4,402.5,224.9,402.5,191.9z"/>
<path class="st0" d="M120.9,336.1c-7.3,7.3-11.4,17.1-11.4,27.5c0,21.5,17.4,38.8,38.8,38.8c10.3,0,20.2-4.1,27.4-11.4l67.4-67.4
	c-4.5-11.9-5.1-25-2.1-37.3l-35.3-35.3L120.9,336.1z M169,356.7c0,7.6-6.1,13.7-13.7,13.7s-13.7-6.1-13.7-13.7
	c0-7.6,6.1-13.7,13.7-13.7S169,349.1,169,356.7z"/>
</svg>
