<?xml version="1.0" encoding="utf-8"?>
<!-- Generator: Adobe Illustrator 27.0.1, SVG Export Plug-In . SVG Version: 6.00 Build 0)  -->
<svg version="1.1" id="레이어_1" xmlns="http://www.w3.org/2000/svg" xmlns:xlink="http://www.w3.org/1999/xlink" x="0px"
	 y="0px" viewBox="0 0 512 512" style="enable-background:new 0 0 512 512;" xml:space="preserve">
<style type="text/css">
	.st0{fill:none;stroke:#52525B;stroke-width:20;stroke-linecap:round;stroke-linejoin:round;stroke-miterlimit:10;}
	.st1{fill:none;stroke:#52525B;stroke-width:40;stroke-linecap:round;stroke-linejoin:round;stroke-miterlimit:10;}
</style>
<path class="st0" d="M197.1,97.3h117.8c3.6,0,6.5,2.9,6.5,6.5v32.7H190.6v-32.7C190.6,100.2,193.5,97.3,197.1,97.3z"/>
<path class="st1" d="M138.9,102.2v36.6H80.3c-32.3,0-58.6,26.3-58.6,58.6v87.9h175.7h117.1h175.7v-87.9c0-32.3-26.3-58.6-58.6-58.6
	h-58.6v-36.6c0-28.3-23-51.2-51.2-51.2H190.1C161.8,51,138.9,74,138.9,102.2z M490.3,285.3H314.6v29.3c0,16.2-13.1,29.3-29.3,29.3
	h-58.6c-16.2,0-29.3-13.1-29.3-29.3v-29.3H21.7v117.1c0,32.3,26.3,58.6,58.6,58.6h351.4c32.3,0,58.6-26.3,58.6-58.6V285.3z"/>
</svg>
