<?xml version="1.0" encoding="utf-8"?>
<!-- Generator: Adobe Illustrator 27.2.0, SVG Export Plug-In . SVG Version: 6.00 Build 0)  -->
<svg version="1.1" id="레이어_1" xmlns="http://www.w3.org/2000/svg" xmlns:xlink="http://www.w3.org/1999/xlink" x="0px"
	 y="0px" viewBox="0 0 512 512" style="enable-background:new 0 0 512 512;" xml:space="preserve">
<style type="text/css">
	.st0{fill:#A1A1AA;}
</style>
<g>
	<path class="st0" d="M449.9,68.6v337.9l-152.5-95.1c-12.4-7.7-26.7-11.8-41.4-11.8s-29,4.1-41.4,11.8L62.1,406.5V68.6H449.9
		 M496,6.5H16c-8.8,0-16,7.1-16,15.9v467.1c0,9.4,7.7,16,16,16c2.9,0,5.7-0.7,8.5-2.5l223.1-138.9c2.6-1.6,5.6-2.4,8.5-2.4
		c3,0,5.8,0.7,8.5,2.4l223.1,138.9c2.7,1.7,5.6,2.5,8.5,2.5c8.3,0,16-6.7,16-16V22.4C512,13.5,504.8,6.5,496,6.5L496,6.5z"/>
</g>
</svg>
