<?xml version="1.0" encoding="utf-8"?>
<!-- Generator: Adobe Illustrator 27.2.0, SVG Export Plug-In . SVG Version: 6.00 Build 0)  -->
<svg version="1.1" id="레이어_1" xmlns="http://www.w3.org/2000/svg" xmlns:xlink="http://www.w3.org/1999/xlink" x="0px"
	 y="0px" viewBox="0 0 512 1023.9" style="enable-background:new 0 0 512 1023.9;" xml:space="preserve">
<style type="text/css">
	.st0{fill:#FFFFFF;}
	.st1{fill:#A1A1AA;}
</style>
<g>
	<path class="st0" d="M278.1,885.6c-6.6-4.3-14.2-6.6-22.1-6.6c-7.9,0-15.5,2.3-22.1,6.6L75,990.4v-1055h362v1055L278.1,885.6z"/>
	<path class="st1" d="M412-39.6V944l-120.2-79.2c-10.7-7-23-10.7-35.8-10.7c-12.8,0-25.2,3.7-35.8,10.7L100,944V-39.6H412 M462-89.6
		H50v1098.5c0,8.9,7.3,15.1,15.1,15.1c2.8,0,5.6-0.8,8.2-2.5l174.4-114.9c2.5-1.7,5.4-2.5,8.3-2.5c2.9,0,5.8,0.8,8.3,2.5
		l174.4,114.9c2.6,1.7,5.5,2.5,8.2,2.5c7.8,0,15.1-6.2,15.1-15.1V-89.6L462-89.6z"/>
</g>
</svg>
