<?xml version="1.0" encoding="utf-8"?>
<!-- Generator: Adobe Illustrator 27.2.0, SVG Export Plug-In . SVG Version: 6.00 Build 0)  -->
<svg version="1.1" id="레이어_1" xmlns="http://www.w3.org/2000/svg" xmlns:xlink="http://www.w3.org/1999/xlink" x="0px"
	 y="0px" viewBox="0 0 512 1023.9" style="enable-background:new 0 0 512 1023.9;" xml:space="preserve">
<style type="text/css">
	.st0{fill:#FFFFFF;}
	.st1{fill:#D1D5DB;}
</style>
<g>
	<path class="st0" d="M278.1,885.6c-6.5-4.3-14.2-6.6-22.1-6.6s-15.5,2.3-22.1,6.6L75,990.4V9.3h362v981.1L278.1,885.6z"/>
	<path class="st1" d="M412,34.3V944l-120.2-79.2c-10.7-7-23-10.7-35.8-10.7s-25.2,3.7-35.8,10.7L100,944V34.3H412 M462-15.7H50
		v1024.5c0,8.9,7.3,15.1,15.1,15.1c2.8,0,5.6-0.8,8.3-2.5l174.3-114.9c2.5-1.6,5.4-2.5,8.3-2.5s5.8,0.8,8.3,2.5l174.3,114.9
		c2.6,1.7,5.5,2.5,8.3,2.5c7.9,0,15.1-6.2,15.1-15V-15.7L462-15.7z"/>
</g>
</svg>
