<?xml version="1.0" encoding="utf-8"?>
<!-- Generator: Adobe Illustrator 27.0.1, SVG Export Plug-In . SVG Version: 6.00 Build 0)  -->
<svg version="1.1" id="레이어_1" xmlns="http://www.w3.org/2000/svg" xmlns:xlink="http://www.w3.org/1999/xlink" x="0px"
	 y="0px" viewBox="0 0 512 512" style="enable-background:new 0 0 512 512;" xml:space="preserve">
<style type="text/css">
	.st0{fill:none;stroke:#52525B;stroke-width:40;stroke-linecap:round;stroke-linejoin:round;stroke-miterlimit:10;}
</style>
<path class="st0" d="M176.9,68.8c5.7,0,10.5,4.2,12.2,9.7c9,28.3,35.5,48.8,66.9,48.8s57.9-20.5,66.9-48.8c1.8-5.5,6.5-9.7,12.2-9.7
	h9.2c16.5,0,32.3,5.8,45,16.3l92.3,76.9c4.8,4,7.8,9.9,8.3,16.2c0.5,6.3-1.5,12.5-5.7,17.3l-40.9,46.8c-8.3,9.6-22.8,10.7-32.6,2.6
	L373,213.4v183c0,25.8-21,46.8-46.8,46.8H185.8c-25.8,0-46.8-21-46.8-46.8v-183l-37.7,31.4c-9.7,8.1-24.2,7-32.6-2.6l-40.9-46.8
	c-4.2-4.8-6.2-11-5.7-17.3c0.5-6.3,3.5-12.1,8.3-16.2l92.3-76.9c12.7-10.5,28.5-16.3,45-16.3H176.9z"/>
</svg>
