<?xml version="1.0" encoding="utf-8"?>
<!-- Generator: Adobe Illustrator 27.0.1, SVG Export Plug-In . SVG Version: 6.00 Build 0)  -->
<svg version="1.1" id="레이어_1" xmlns="http://www.w3.org/2000/svg" xmlns:xlink="http://www.w3.org/1999/xlink" x="0px"
	 y="0px" viewBox="0 0 512 512" style="enable-background:new 0 0 512 512;" xml:space="preserve">
<style type="text/css">
	.st0{fill:none;stroke:#52525B;stroke-width:40;stroke-linecap:round;stroke-linejoin:round;stroke-miterlimit:10;}
</style>
<path class="st0" d="M256,121.6c11.4,0,17.7-5.6,24.4-11.4c7.6-6.7,15.8-14,32.7-14c39.1,0,66.9,120.7,77.6,176
	c-33.4,14.4-78.5,27-134.7,27s-101.4-12.6-134.7-27c10.7-55.3,38.5-176,77.6-176c16.9,0,25.1,7.2,32.7,14
	C238.3,116.1,244.6,121.6,256,121.6z M373.2,198.4c69.7,20.2,116.6,57.8,116.6,100.8c0,64.4-104.7,116.5-233.8,116.5
	S22.2,363.6,22.2,299.3c0-43,46.7-80.5,116.2-100.7"/>
</svg>
