<?xml version="1.0" encoding="utf-8"?>
<!-- Generator: Adobe Illustrator 27.0.1, SVG Export Plug-In . SVG Version: 6.00 Build 0)  -->
<svg version="1.1" id="레이어_1" xmlns="http://www.w3.org/2000/svg" xmlns:xlink="http://www.w3.org/1999/xlink" x="0px"
	 y="0px" viewBox="0 0 512 512" style="enable-background:new 0 0 512 512;" xml:space="preserve">
<style type="text/css">
	.st0{fill:#A1A1AA;}
</style>
<path class="st0" d="M244,84l11.1,12l12-12c33.5-32.6,79.9-47.5,125.5-39.9c68.9,11.5,119.4,71.1,119.4,141v5.8
	c0,41.5-17.2,81.2-47.6,109.5L283.7,469.1c-7.5,7-17.4,10.9-27.7,10.9c-10.3,0-20.2-3.9-27.7-10.9L47.6,300.4
	C17.2,272.1,0,232.4,0,190.9v-5.8c0-69.9,50.5-129.5,119.4-141C164.1,36.5,211.4,51.4,244,84C243.1,84,244,84,244,84L244,84z
	 M255.1,163.9l-45-46.8c-21.7-20.8-52.5-30.7-82.8-25.7C81.6,99.1,48,138.7,48,185.1v5.8c0,28.2,11.7,55.2,32.3,74.4l175.7,164
	l175.7-164c20.6-19.2,32.3-46.2,32.3-74.4v-5.8c0-46.4-33.6-86-79.3-93.7c-30.3-5-61.1,4.8-82.8,25.7L255.1,163.9z"/>
</svg>
