<?xml version="1.0" encoding="utf-8"?>
<!-- Generator: Adobe Illustrator 27.0.1, SVG Export Plug-In . SVG Version: 6.00 Build 0)  -->
<svg version="1.1" id="레이어_1" xmlns="http://www.w3.org/2000/svg" xmlns:xlink="http://www.w3.org/1999/xlink" x="0px"
	 y="0px" viewBox="0 0 512 512" style="enable-background:new 0 0 512 512;" xml:space="preserve">
<style type="text/css">
	.st0{fill:none;stroke:#52525B;stroke-width:40;stroke-linecap:round;stroke-linejoin:round;stroke-miterlimit:10;}
</style>
<path class="st0" d="M130.4,55.2c4.1-5.5,10.6-8.8,17.4-8.8h216.5c6.9,0,13.3,3.2,17.4,8.8l101,137.1c6.1,8.3,5.5,19.8-1.4,27.4
	L272.1,450.6c-4.1,4.5-9.9,7.1-16.1,7.1s-11.9-2.6-16.1-7.1L30.7,219.7c-6.9-7.7-7.5-19.1-1.4-27.4L130.4,55.2L130.4,55.2z
	 M25.1,205.8h461.8 M200.6,46.4l-52.9,159.5L256,457.7l108.2-249.2L311.3,46.4 M256,46.4l0,411.4"/>
</svg>
