<?xml version="1.0" encoding="UTF-8"?><svg id="_레이어_1" xmlns="http://www.w3.org/2000/svg" viewBox="0 0 512 512"><defs><style>.cls-1{fill:#18181b;}</style></defs><path class="cls-1" d="M195.62,512v-18.91l19.17-1.27,5.24-6.2v-167.04l-5.24-4.77-19.17-1.27v-18.91h176.51v54.36h-27.65l-5.24-28.93-4.61-3.66h-57.85v72.31h34.17l4.77-4.61,3.34-23.36h23.05v79.94h-23.05l-3.34-23.36-4.77-4.61h-34.17v78.51h68.02l4.45-5.24,5.88-36.08h27.02v63.1H195.62Z"/><path class="cls-1" d="M0,233.26H116.82c23.84,0,42.01,4.21,54.51,12.64,12.5,8.42,18.75,20.69,18.75,36.79,0,12.93-4.13,23.84-12.4,32.74-8.26,8.9-20.4,15.47-36.4,19.71,19.49,.64,34.51,5.54,45.06,14.7,10.54,9.16,15.81,21.85,15.81,38.06,0,20.56-7.1,36.32-21.3,47.28-14.2,10.97-34.65,16.45-61.35,16.45H0v-18.91l20.5-1.27,5.24-6.2v-167.04l-5.24-4.77L0,252.18v-18.91Zm82.33,94.72h5.88c14.83,0,25.64-3.1,32.42-9.29,6.78-6.2,10.17-16.03,10.17-29.49,0-11.86-3.31-20.69-9.93-26.46-6.62-5.78-16.72-8.67-30.28-8.67-2.23,0-3.89,.03-5.01,.08-1.11,.05-2.15,.13-3.1,.24l-.16,73.59Zm.16,102.51c1.38,.11,2.83,.18,4.37,.24,1.54,.06,3.84,.08,6.91,.08,16.74,0,28.95-3.28,36.63-9.85,7.68-6.57,11.52-16.95,11.52-31.15,0-13.24-4.19-23.23-12.56-29.96-8.37-6.73-20.66-10.09-36.87-10.09-2.65,0-4.69,.03-6.12,.08-1.43,.05-2.78,.18-4.05,.39l.16,80.26Z"/><path class="cls-1" d="M33.25,0h119.52c25.11,0,44.23,4.61,57.38,13.83,13.14,9.22,19.71,22.63,19.71,40.21,0,15.68-5.11,28.19-15.34,37.51-10.23,9.33-25.51,15.37-45.85,18.12,6.99,1.38,13.14,3.25,18.44,5.65,5.3,2.38,9.8,5.27,13.51,8.66,8.37,7.53,16.21,21.14,23.52,40.85,1.69,4.35,2.97,7.69,3.81,10.01,3.92,9.75,8.5,16.24,13.75,19.47,5.24,3.24,13.38,4.85,24.4,4.85l95.23,1.91v19.23c-8.8,.64-108.29-.79-115.65-.48-7.37,.32-14.01,.48-19.95,.48-10.49,0-19.71-1.43-27.65-4.29-7.95-2.86-14.46-7.04-19.55-12.56-5.19-5.61-9.96-16.53-14.3-32.74-1.91-6.89-3.45-12.02-4.61-15.42-4.03-11.65-9.11-19.89-15.26-24.71-6.15-4.83-14.52-7.23-25.11-7.23h-3.18v68.66l5.09,6.2,21.46,1.27v18.91H33.25v-18.91l20.82-1.27,5.24-6.2V24.95l-5.24-4.77-20.82-1.27V0ZM116.05,22.09V101.56c.85,0,2.07,.06,3.66,.16,1.59,.11,2.86,.16,3.81,.16,15.58,0,27.28-3.47,35.12-10.41,7.84-6.94,11.76-17.25,11.76-30.92,0-11.86-3.55-21.24-10.65-28.13-7.1-6.89-16.69-10.33-28.77-10.33h-14.94Z"/><path class="cls-1" d="M299.88,111.63l-49.91,141.93,3.34,3.97,20.82,2.23v18.91h-78.51v-18.91l21.14-1.27L291.29,58.71h46.89l153.95,357.88,19.87,2.54v18.91h-105.37v-18.91l22.09-1.59,2.54-4.29L299.88,111.63Zm0,0"/></svg>