<?xml version="1.0" encoding="utf-8"?>
<!-- Generator: Adobe Illustrator 27.2.0, SVG Export Plug-In . SVG Version: 6.00 Build 0)  -->
<svg version="1.1" id="_레이어_1" xmlns="http://www.w3.org/2000/svg" xmlns:xlink="http://www.w3.org/1999/xlink" x="0px"
	 y="0px" viewBox="0 0 512 512" style="enable-background:new 0 0 512 512;" xml:space="preserve">
<style type="text/css">
	.st0{fill:#FFFFFF;}
	.st1{fill:#18181B;}
</style>
<path class="st0" d="M462,512H50c-27.6,0-50-22.4-50-50V50C0,22.4,22.4,0,50,0h412c27.6,0,50,22.4,50,50v412
	C512,489.6,489.6,512,462,512z"/>
<g>
	<path class="st1" d="M207.4,462v-15.2l15.4-1l4.2-5V306.4l-4.2-3.8l-15.4-1v-15.2h142V330h-22.2l-4.2-23.3l-3.7-2.9h-46.6V362h27.5
		l3.8-3.7l2.7-18.8h18.5v64.3h-18.5l-2.7-18.8l-3.8-3.7h-27.5v63.2h54.7l3.6-4.2l4.7-29h21.7V462L207.4,462L207.4,462z"/>
	<path class="st1" d="M50,237.7h94c19.2,0,33.8,3.4,43.9,10.2c10.1,6.8,15.1,16.6,15.1,29.6c0,10.4-3.3,19.2-10,26.3
		c-6.6,7.2-16.4,12.4-29.3,15.9c15.7,0.5,27.8,4.5,36.3,11.8c8.5,7.4,12.7,17.6,12.7,30.6c0,16.5-5.7,29.2-17.1,38
		c-11.4,8.8-27.9,13.2-49.4,13.2H50v-15.2l16.5-1l4.2-5V257.8l-4.2-3.8l-16.5-1V237.7L50,237.7z M116.2,313.9h4.7
		c11.9,0,20.6-2.5,26.1-7.5c5.5-5,8.2-12.9,8.2-23.7c0-9.5-2.7-16.6-8-21.3c-5.3-4.7-13.5-7-24.4-7c-1.8,0-3.1,0-4,0.1
		c-0.9,0-1.7,0.1-2.5,0.2L116.2,313.9L116.2,313.9z M116.4,396.4c1.1,0.1,2.3,0.1,3.5,0.2s3.1,0.1,5.6,0.1c13.5,0,23.3-2.6,29.5-7.9
		c6.2-5.3,9.3-13.6,9.3-25.1c0-10.7-3.4-18.7-10.1-24.1c-6.7-5.4-16.6-8.1-29.7-8.1c-2.1,0-3.8,0-4.9,0.1s-2.2,0.1-3.3,0.3
		L116.4,396.4L116.4,396.4z"/>
	<path class="st1" d="M76.8,50h96.2c20.2,0,35.6,3.7,46.2,11.1c10.6,7.4,15.9,18.2,15.9,32.4c0,12.6-4.1,22.7-12.3,30.2
		c-8.2,7.5-20.5,12.4-36.9,14.6c5.6,1.1,10.6,2.6,14.8,4.5c4.3,1.9,7.9,4.2,10.9,7c6.7,6.1,13,17,18.9,32.9c1.4,3.5,2.4,6.2,3.1,8.1
		c3.2,7.8,6.8,13.1,11.1,15.7c4.2,2.6,10.8,3.9,19.6,3.9l76.6,1.5v15.5c-7.1,0.5-87.1-0.6-93.1-0.4c-5.9,0.3-11.3,0.4-16.1,0.4
		c-8.4,0-15.9-1.2-22.2-3.5c-6.4-2.3-11.6-5.7-15.7-10.1c-4.2-4.5-8-13.3-11.5-26.3c-1.5-5.5-2.8-9.7-3.7-12.4
		c-3.2-9.4-7.3-16-12.3-19.9c-4.9-3.9-11.7-5.8-20.2-5.8h-2.6v55.2l4.1,5l17.3,1v15.2h-88v-15.2l16.8-1l4.2-5V70.1l-4.2-3.8l-16.8-1
		V50z M143.4,67.8v63.9c0.7,0,1.7,0,2.9,0.1c1.3,0.1,2.3,0.1,3.1,0.1c12.5,0,22-2.8,28.3-8.4c6.3-5.6,9.5-13.9,9.5-24.9
		c0-9.5-2.9-17.1-8.6-22.6c-5.7-5.5-13.4-8.3-23.2-8.3L143.4,67.8L143.4,67.8z"/>
	<path class="st1" d="M291.3,139.8L251.1,254l2.7,3.2l16.8,1.8v15.2h-63.2V259l17-1l60-160.8h37.7l123.9,288l16,2v15.2h-84.8v-15.2
		L395,386l2-3.5L291.3,139.8z"/>
</g>
</svg>
