<?xml version="1.0" encoding="UTF-8"?><svg id="_레이어_1" xmlns="http://www.w3.org/2000/svg" viewBox="0 0 512.25 117.09"><defs><style>.cls-1{stroke:#000;stroke-miterlimit:10;stroke-width:.25px;}</style></defs><path class="cls-1" d="M492.06,12.52l2.44,2.11,2.7,17.03h14.92V.12L143.93,.22l-.03-.09h-12.99l-.03,.08L63.52,.12H.12V10.16l11.04,.67,2.78,2.53V101.96l-2.78,3.29-11.04,.67-.12,11.17H58l.12-11.17-11.38-.67-2.7-3.29v-36.42h1.69c5.62,0,10.06,1.28,13.32,3.84,3.26,2.56,5.96,6.93,8.09,13.11,.62,1.8,1.43,4.53,2.44,8.18,2.3,8.6,4.83,14.39,7.59,17.37,2.7,2.92,6.15,5.14,10.37,6.66,3.34,1.2,7.12,1.92,11.31,2.17v.11h3.11c.08,0,.16,0,.24,0,.28,0,.58,0,.86,0l38.07-.05v.06l6.86-.07,330.05,.07v-10.54l-12.39-.67-3.29-3.29v-36.42h19.64l2.44,2.44,1.69,12.39h12.31V38.57h-12.31l-1.69,12.48-2.44,2.19h-19.64V12.52h29.67Zm-175.94-1.18l2.78,2.53V102.47l-2.78,3.29-7.35,.43-16.96,.06c6.34-5.72,9.53-13.58,9.53-23.59,0-8.6-2.8-15.33-8.39-20.19-5.59-4.86-13.56-7.46-23.9-7.8,8.49-2.25,14.92-5.73,19.31-10.45,4.38-4.72,6.58-10.51,6.58-17.37,0-6.5-1.93-11.82-5.77-15.96l20.36,.07,6.6,.39Zm-52.64,18.97c0,7.14-1.8,12.35-5.4,15.64-3.6,3.28-9.33,4.93-17.2,4.93h-3.12l.08-39.03c.51-.05,1.05-.1,1.64-.12,.59-.03,1.48-.04,2.66-.04,7.19,0,12.55,1.53,16.06,4.6,3.51,3.06,5.27,7.74,5.27,14.03Zm-23.56,32.16c.76-.03,1.84-.04,3.25-.04,8.6,0,15.12,1.78,19.56,5.35,4.44,3.57,6.66,8.87,6.66,15.89,0,7.53-2.04,13.04-6.11,16.52-4.08,3.49-10.55,5.23-19.43,5.23-1.63,0-2.85-.01-3.67-.04-.82-.03-1.59-.07-2.32-.12l-.08-42.57c.67-.11,1.39-.18,2.15-.21ZM194.11,10.58v.08l10.88,.67,2.78,2.53V102.47l-2.78,3.29-4.65,.82-6.23,.02v-7.29h-7.56l-1.19,7.32-20.74,.07v-17.81h9.57l1.33,1.29,.93,6.54h6.45v-22.38h-6.45l-.93,6.54-1.33,1.29h-9.57v-20.25h16.2l1.29,1.02,1.47,8.1h7.74v-15.22h-21.08l-5.4-.69-17-44.71,46.29,.15Zm-53.55,24.17h-14.4l7.14-19.95,7.27,19.95Zm-30.3,20.75l-26.8,.25c5.25-1.72,9.53-4.06,12.82-7.06,5.42-4.94,8.14-11.58,8.14-19.9,0-7.68-2.37-13.85-7.09-18.52l29.77,.1-16.84,45.13Zm-62.24-1.33c-.51,0-1.18-.03-2.02-.08-.84-.05-1.49-.08-1.94-.08V11.84h7.92c6.41,0,11.49,1.83,15.26,5.48,3.76,3.66,5.65,8.63,5.65,14.92,0,7.25-2.08,12.72-6.24,16.4-4.16,3.68-10.37,5.52-18.63,5.52Zm40.89,11.72c-1.97-1.8-4.36-3.33-7.17-4.59-.11-.05-.24-.09-.35-.14l44.77-.06v-5.24l-5.77-.62-.92-1.1,4.54-13.35h19.2l4.76,13.43-.7,1.19-5.93,.43h-.16s-.03,.01-.03,.01v5.24h.03v.04l6.1,.36,1.47,1.33v43.94l-23.07,.08v-.04h-2.02c-5.85,0-10.16-1.9-12.94-3.62-2.78-1.71-5.21-5.15-7.29-10.33-.45-1.23-1.12-3-2.02-5.31-3.88-10.45-8.04-17.67-12.48-21.67Zm342.72,36.59l-2.78,3.29-23.94,.09v-22.85h-14.33l-3.12,19.14-2.36,2.78h-36.08V63.27h18.12l2.53,2.44,1.77,12.39h12.22V35.7h-12.22l-1.77,12.39-2.53,2.44h-18.12V12.18h30.69l2.44,1.94,2.78,15.34h14.67V11.24l29.25,.09,2.78,2.53V102.47Z"/></svg>